<svg width="24" height="25" viewBox="0 0 24 25" fill="none" xmlns="http://www.w3.org/2000/svg">
<path d="M14.9993 22.9991V16.9989C14.9993 16.7337 14.8939 16.4794 14.7064 16.2918C14.5188 16.1043 14.2645 15.9989 13.9993 15.9989H9.99927C9.73405 15.9989 9.4797 16.1043 9.29216 16.2918C9.10462 16.4794 8.99927 16.7337 8.99927 16.9989V22.9991C8.99927 23.2643 8.89393 23.5186 8.70642 23.7061C8.51891 23.8937 8.26459 23.999 7.99939 23.9991L2.00012 23.9999C1.86879 23.9999 1.73874 23.974 1.6174 23.9238C1.49606 23.8735 1.38581 23.7999 1.29294 23.707C1.20007 23.6142 1.12639 23.5039 1.07613 23.3826C1.02587 23.2612 1 23.1312 1 22.9999V11.4423C1 11.303 1.02911 11.1652 1.08547 11.0378C1.14183 10.9104 1.22418 10.7962 1.32726 10.7024L11.3266 1.61058C11.5106 1.44322 11.7505 1.35047 11.9993 1.35046C12.2481 1.35046 12.4879 1.44318 12.672 1.61054L22.6727 10.7024C22.7758 10.7962 22.8582 10.9104 22.9145 11.0378C22.9709 11.1652 23 11.303 23 11.4424V22.9999C23 23.1312 22.9741 23.2612 22.9239 23.3826C22.8736 23.5039 22.7999 23.6142 22.7071 23.707C22.6142 23.7999 22.5039 23.8735 22.3826 23.9238C22.2613 23.974 22.1312 23.9999 21.9999 23.9999L15.9991 23.9991C15.7339 23.999 15.4796 23.8937 15.2921 23.7061C15.1046 23.5186 14.9993 23.2643 14.9993 22.9991V22.9991Z" stroke="#FAFAFA" stroke-width="2" stroke-linecap="round" stroke-linejoin="round"/>
</svg>
